<?xml version="1.0" encoding="UTF-8"?>
<!-- Generator: Adobe Illustrator 26.1.0, SVG Export Plug-In . SVG Version: 6.00 Build 0)  -->
<svg xmlns="http://www.w3.org/2000/svg" xmlns:xlink="http://www.w3.org/1999/xlink" version="1.1" id="Layer_1" x="0px" y="0px" width="639.174px" height="250.495px" viewBox="0 0 639.174 250.495" xml:space="preserve">
<path id="Football_-__x23_f2f2f3" fill="#F2F2F3" d="M177.712,207.378h20.599v8.576h-10.824v8.215h9.654v8.575h-9.654v17.75h-9.775  V207.378z M252.198,214.304v29.324c0,2.878-1.189,4.887-3.568,6.027c-1.199,0.56-2.398,0.839-3.598,0.839h-10.464  c-1.2,0-2.399-0.28-3.598-0.839c-2.399-1.14-3.598-3.148-3.598-6.027v-29.324c0-2.858,1.199-4.857,3.598-5.997  c1.199-0.58,2.398-0.87,3.598-0.87h10.464c1.2,0,2.399,0.29,3.598,0.87C251.008,209.447,252.198,211.446,252.198,214.304z   M242.513,216.044h-5.427v26.176h5.427V216.044z M306.085,214.304v29.324c0,2.878-1.189,4.887-3.568,6.027  c-1.199,0.56-2.398,0.839-3.598,0.839h-10.464c-1.2,0-2.399-0.28-3.598-0.839c-2.399-1.14-3.598-3.148-3.598-6.027v-29.324  c0-2.858,1.199-4.857,3.598-5.997c1.199-0.58,2.398-0.87,3.598-0.87h10.464c1.2,0,2.399,0.29,3.598,0.87  C304.895,209.447,306.085,211.446,306.085,214.304z M296.4,216.044h-5.427v26.176h5.427V216.044z M335.145,215.954h7.346v34.541  h9.774v-34.541h7.286v-8.576h-24.407V215.954z M413.468,214.304v10.345l-2.938,3.958l2.938,3.958v11.064  c0,2.878-1.199,4.887-3.598,6.027c-1.199,0.56-2.398,0.839-3.598,0.839h-17.66v-43.057h17.66c1.2,0,2.399,0.28,3.598,0.84  C412.269,209.417,413.468,211.426,413.468,214.304z M403.573,232.444h-5.217v10.075h5.217V232.444z M403.573,214.904h-5.217v9.835  h5.217V214.904z M463.337,207.438l6.117,43.057h-9.295l-1.109-8.575h-6.117l-1.109,8.575h-9.295l6.087-43.057H463.337z   M458.329,234.034l-2.188-19.759h-0.3l-2.189,19.759H458.329z M508.289,207.378h-9.775v43.117h18.8v-8.575h-9.025V207.378z   M556.149,241.92v-34.542h-9.775v43.117h18.8v-8.575H556.149z"></path>
<path id="Panthers_-__x23_f2f2f3" fill="#F2F2F3" d="M595.081,115.196c0.163-2.381-2.177-4.541-5.277-4.26  c-2.972,0.269-4.995,2.172-5.616,5.039c-0.169,0.763-0.169,2.027-0.181,2.184c0.186,4.095,3.251,7.21,6.763,10.735  c4.182,4.219,8.675,8.886,9.432,16.009c0.209,1.965,0.186,4.083-0.288,6.391c-1.925,9.369-8.462,15.495-17.808,17.188  c-5.709,1.034-12.751-0.27-16.113-4.314c-3.19-3.837-3.858-10.511-2.26-16.598l14.272-0.003l-0.184,0.763  c-1.415,1.055-2.182,2.414-2.234,3.946c-0.104,3.093,2.65,4.712,5.018,4.684c3.265-0.038,5.486-2.503,6.071-5.367  c1.111-5.44-2.421-8.688-6.589-12.925c-4.163-4.233-8.667-8.825-9.432-16.009c-0.21-1.972-0.188-4.083,0.285-6.391  c1.919-9.371,8.467-15.462,17.808-17.188c3.577-0.661,8.02-0.448,11.541,0.987c1.885,0.768,3.697,2.221,4.571,3.332  c0.985,1.252,1.885,2.749,2.4,4.493c1.066,3.605,0.945,8.065-0.191,12.149h-14.83l0.166-0.714  C594.082,118.286,594.968,116.843,595.081,115.196z M561.618,166.379l0.118,1.018h-17.25l-3.326-26.682  c-3.606-0.271-4.082,1.867-4.319,2.743c-1.604,5.944-5.733,23.951-5.733,23.951h-14.147c0,0,9.066-38.101,12.12-50.794  c0.714-2.968,2.159-8.9,2.834-11.876c0.503-2.216-0.949-3.732-2.314-4.269l0.27-1.036c0,0,14.254,0.033,22.524,0.033  c5.398,0,9.6,1.551,12.1,4.48c2.7,3.164,3.317,7.79,1.967,13.465c-0.324,1.363-0.919,4.102-1.235,5.467  c-1.579,6.833-5.473,12.044-10.859,15.078c0,0,2.925,22.749,3.335,24.386c0.137,0.548,0.498,1.348,1.037,2.008  C559.548,165.339,560.673,166.056,561.618,166.379z M552.02,112.827c-0.672-0.788-1.818-1.154-3.611-1.154  c-2.372,0-3.913,0.006-3.913,0.006l-3.493,14.582l-7.446,1.632l-0.276,0.813c0,0,8.377,0.01,11.169,0.012  c4.598,0.002,6.187-2.615,7.136-6.888c0.303-1.363,1.015-4.806,1.094-5.478C552.873,114.693,552.654,113.57,552.02,112.827z   M503.099,126.086c0.625-2.608,1.895-7.819,2.532-10.424c0.32-1.309,0.591-3.183,4.623-3.183c3.227,0,12.906,0,12.906,0  l2.997-12.534h-34.562l-0.267,1.036c1.353,0.528,2.798,2.024,2.321,4.201c-0.68,3.097-2.928,12.341-2.928,12.341l-12.088,50.95  h31.708L513.331,156c0,0-10.657,0-14.209,0c-3.059,0-3.046-1.162-2.432-3.971c0.435-1.991,1.843-7.942,1.843-7.942  c0.264-1.477,0.829-2.373,2.383-2.386c4.81-0.041,10.3,0,10.3,0l2.997-12.534l0.056-0.332c0,0-7.074,0-9.432,0  C503.353,128.835,502.653,127.946,503.099,126.086z M473.315,99.671c0,0-5.153,21.41-6.888,28.543  c-0.421,1.732-1.83,2.063-2.538,2.085c-3.777,0.116-15.115,0-15.115,0l0.252-1.055l7.012-1.185l6.701-28.419l-13.775,0.006  l-16.319,68.255h14.023c0,0,4.896-20.596,5.339-22.173c0.452-1.608,1.247-1.945,2.389-2.004c0.915-0.047,4.884-0.149,6.092-0.014  c1.888,0.211,1.967,1.041,1.717,2.107c-1.3,5.53-5.33,22.09-5.33,22.09h14.085l16.133-68.255L473.315,99.671z M441.359,112.081  l2.904-12.162h-35.927l-2.904,12.162c0,0,5.864,0.013,7.818,0.015c3.053,0.003,2.749,1.442,2.556,2.275  c-3.123,13.489-13.155,53.797-13.155,53.797h14.706c0,0,9.507-40.334,12.596-53.797c0.214-0.931,0.513-2.283,3.065-2.283  C435.104,112.086,441.359,112.081,441.359,112.081z M390.788,99.671c0,0-4.452,18.583-6.013,24.758  c-0.426,1.686-0.62,1.979-1.371,1.979c-1.03,0-1.197-1.678-1.272-2.339c-0.691-6.102-2.997-24.379-2.997-24.379h-16.009l-0.258,1.03  c1.359,0.534,2.817,2.053,2.302,4.275c-3.641,15.709-15.264,62.671-15.264,62.671h12.969c0,0,5-21.065,6.826-28.047  c0.346-1.322,0.599-1.57,1.253-1.57c0.813,0,1.143,1.45,1.222,2.06c0.896,6.885,2.966,27.612,2.966,27.612h12.1l16.567-68.255  L390.788,99.671z M313.846,139.383l15.016-1.886l0.137-0.398h-14.272L313.846,139.383z M330.541,131.937h-13.965l-1.272,3.233  l14.706-1.682L330.541,131.937z M325.76,99.674l-0.394,1.033c1.334,0.525,3.092,2.096,2.37,4.133  c-2.363,6.663-10.362,26.309-10.362,26.309c1.303-0.231,10.176-1.775,14.768-2.401c0,0,1.997-5.716,2.631-7.632  c0.234-0.709,0.721-2.451,1.737-2.43c0.493,0.01,0.878,0.476,0.738,1.734c-0.312,2.814-2.42,20.703-2.42,20.703l-21.342-0.012  l-10.549,26.744h15.885l5.529-16.133c0,0,3.008,0,5.982,0c2.891,0,3.141,1.645,3.009,2.798c-0.628,5.5-1.564,13.403-1.564,13.403  h14.085l7.88-68.255L325.76,99.674z M292.308,141.031c-0.447,0-2.427,0.097-2.792,0.107c-1.805,0.048-2.572,1.824-2.805,2.693  c-1.591,5.948-5.74,23.951-5.74,23.951h-14.147c0,0,11.391-46.962,14.954-62.671c0.503-2.216-0.956-3.732-2.315-4.269l0.267-1.036  c0,0,13.969,0.02,22.524,0.033c5.398,0.008,9.596,1.549,12.1,4.48c2.702,3.162,3.355,7.799,1.967,13.465  c-0.318,1.296-0.934,3.892-1.241,5.191C312.444,134.136,303.788,141.031,292.308,141.031z M301.87,113.161  c-0.671-0.789-1.818-1.154-3.611-1.154c-2.04,0-3.915,0.006-3.915,0.006l-3.493,14.582l-7.446,1.632l-0.273,0.813  c0,0,8.377,0.01,11.169,0.012c4.598,0.002,6.2-2.612,7.136-6.888c0.174-0.795,0.535-2.384,0.654-3.189  C302.568,115.74,302.757,114.204,301.87,113.161z"></path>
<path id="Carolina_-__x23_f2f2f3" fill="#F2F2F3" d="M613.185,27.277c-5.646,16.031-24.82,63.291-24.82,63.291h15.885l5.535-16.133  c0,0,4.486-0.023,5.982,0c2.616,0.04,3.191,1.177,3.009,2.798c-0.574,5.139-1.564,13.403-1.564,13.403h14.082l7.88-68.255  l-27.985,0.003l-0.369,0.76C612.149,23.667,613.902,25.241,613.185,27.277z M620.23,43.521c0.233-0.709,0.763-2.432,1.731-2.432  c0,0,0.782,0.136,0.776,1.396l-2.451,21.097h-14.644l0.416-1.085c0,0,3.946-0.689,8.129-1.365  C614.186,61.132,618.778,47.944,620.23,43.521z M558.963,23.141l0.264-1.024h16.009c0,0,2.153,16.878,2.777,22.515  c0.091,0.824,0.285,2.916,1.576,2.916c0.974,0,1.279-1.078,1.812-2.916l5.559-22.751h12.968l-16.567,68.255h-12.1L568.469,64.2  c-0.161-0.794-0.571-2.401-1.489-2.401s-1.154,0.335-1.682,2.364l-6.329,25.937h-12.968c0,0,11.623-46.961,15.264-62.671  C561.78,25.207,560.328,23.678,558.963,23.141z M538.654,27.451c0.533-2.243-0.925-3.776-2.296-4.319l0.248-1.269l17.374,0.003  l-16.505,68.255H523.39C523.39,90.122,534.923,43.139,538.654,27.451z M501.054,23.191l0.264-1.024l17.436,0.003l-11.931,48.522  c0,0-1.022,3.821-1.258,5.118c-0.084,0.461-0.056,2.072,2.389,2.147h14.83l-2.923,12.224h-31.77l13.482-55.376  c0,0,1.344-5.468,1.776-7.295C503.88,25.267,502.425,23.734,501.054,23.191z M451.399,86.206c1.843,2.246,5.541,4.933,12.72,4.933  c10.983,0,19.412-6.828,21.966-17.87c1.87-8.084,5.625-24.247,7.508-32.328c1.225-5.258,0.808-9.939-1.152-13.396  c-0.339-0.598-0.721-1.164-1.156-1.682c-0.461-0.548-1.169-1.369-2.038-2.013c-2.047-1.518-5.13-2.796-9.708-2.796  c-11.293,0-19.918,6.826-22.524,17.87c0,0-5.868,25.129-7.818,33.507C447.885,78.065,448.649,82.855,451.399,86.206z M463.4,72.94  c1.912-8.236,7.632-32.949,7.632-32.949c1.086-4.679,2.805-6.763,6.515-6.329c2.055,0.226,2.591,1.686,2.558,3.359  c-0.018,0.914-0.285,2.088-0.442,2.772c-0.536,2.335-2.162,9.335-2.162,9.335s-4.103,17.71-5.47,23.614  c-0.95,4.101-2.575,5.696-5.783,5.696C463.611,78.438,462.836,75.366,463.4,72.94z M417.142,27.794l-14.954,62.671h14.147  l5.733-23.951c0.258-0.869,1.011-2.643,2.811-2.687c0.199-0.006,0.869-0.036,1.514-0.062l3.326,26.682h17.25l-0.119-1.018  c-0.951-0.33-2.083-1.052-2.893-2.05c-0.532-0.655-0.781-1.45-0.919-1.991c-0.362-1.416-0.909-5.781-0.909-5.781l-2.536-18.592  c4.66-2.625,8.177-6.886,10.086-12.407c0.297-0.86,2.41-9.955,2.529-10.818c0.614-4.453-0.227-8.14-2.489-10.79  c-2.5-2.929-6.701-4.476-12.1-4.48c-8.307-0.006-22.524-0.036-22.524-0.036l-0.27,1.036  C416.192,24.055,417.62,25.573,417.142,27.794z M418.783,50.947l7.508-1.626l3.487-14.582c0,0,4.415-0.002,4.642,0.013  c1.386,0.09,2.309,0.457,2.885,1.132c0.702,0.824,0.895,2.107,0.587,4.064c-0.084,0.534-1.307,5.855-1.433,6.283  c-1.022,3.463-2.691,5.543-6.784,5.543l-11.169-0.015L418.783,50.947z M375.539,74.442c0,0,4.488-0.068,5.982,0  c2.894,0.131,3.103,1.894,3.003,2.805c-0.378,3.459-1.564,13.403-1.564,13.403h14.085l7.88-68.255l-28.164,0.003v0.748  c1.334,0.522,2.842,2.073,2.184,4.139l-24.82,63.291h15.885L375.539,74.442z M371.81,62.497l8.129-1.365  c0,0,4.57-13.201,6.031-17.622c0.234-0.707,0.776-2.503,1.734-2.42c0.399,0.034,0.909,0.143,0.782,1.396  c-0.867,8.547-2.457,21.035-2.457,21.035l-14.643,0.038L371.81,62.497z M355.619,72.877c-2.524,11.049-10.983,17.87-21.966,17.87  c-7.167,0-10.875-2.695-12.72-4.945c-2.751-3.354-3.544-8.135-2.209-13.775c1.948-8.231,5.994-24.656,7.942-32.887  c2.611-11.029,11.169-17.87,22.524-17.87c6.509,0,10.004,2.598,11.789,4.79c2.929,3.596,3.751,8.961,2.314,15.14  c-0.337,1.451-1.353,5.802-1.353,5.802h-16.295l0.279-1.228c1.061-0.546,2.265-1.454,2.674-2.755  c0.226-0.719,0.55-2.193,0.682-2.935c0.539-3.027,0.462-4.462-0.315-5.411c-0.403-0.492-1.018-0.738-1.843-0.738  c-3.723,0-5.43,1.644-6.515,6.329c-1.909,8.237-5.724,24.711-7.632,32.949c-0.564,2.432-0.557,4.027,0.021,4.734  c0.527,0.642,1.83,0.776,2.836,0.776c3.22,0,4.855-1.599,5.802-5.709c0.288-1.249,0.855-3.749,1.129-5.001  c0.32-1.462-0.385-2.553-1.253-3.146l0.276-1.185h15.914C357.702,63.682,356.144,70.579,355.619,72.877z"></path>
<path id="LOGO_-__x23_f2f2f3" fill="#F2F2F3" d="M127.693,79.739c0,0-26.973,20.387-33.911,50.004  c-5.362-0.893-11.021-1.619-16.992-2.131C94.866,93.424,127.693,79.739,127.693,79.739z M139.84,61.812  c0,0-12.864,42.785,43.8,45.535C183.64,107.347,145.516,99.144,139.84,61.812z M143.01,56.846c20.927-5.867,42.421-5.196,50.5-4.658  c-0.097-1.325-0.048-2.69,0.223-4.08C161.243,47.6,143.01,56.846,143.01,56.846z M142.407,46.628  c23.55-4.727,44.091-2.948,52.422-1.855c0.536-1.144,1.251-2.295,2.188-3.445C166.196,37.083,142.407,46.628,142.407,46.628z   M142.259,36.079c0,0,34.691-4.888,57.414,2.526c1.256-1.098,2.743-2.188,4.493-3.263C195.549,32.938,172.012,28.093,142.259,36.079  z M220.332,32.422c11.428,4.453,14.827,10.672,15.361,15.354c2.083-7.115,8.403-11.21,11.544-12.856  c1.098-0.575,1.807-0.852,1.811-0.853c0,0-1.271-0.542-1.904-0.781C233.2,27.999,220.332,32.422,220.332,32.422z M216.814,139.228  c0,0,12.944,15.2,18.155,27.773c0,0-0.002-12.797-6.135-27.927C225.518,139.711,221.554,139.815,216.814,139.228z M238.764,66.706  c0.054-0.077-0.052-0.161-0.12-0.096c-10.016,9.715-5.665,17.435-0.265,30.623c5.522,13.486-0.493,21.574-12.438,22.903  c-17.512,1.947-23.305-9.756-23.784-20.622c-0.478-10.865,1.914-21.886,1.914-21.886s-4.332,2.276-3.773,23.493  c0.559,21.218,12.999,32.781,28.354,29.103c22.581-5.409,17.322-25.291,9.874-40.17C232.324,77.666,237.019,69.194,238.764,66.706z   M219.558,99.355c-2.901,8.67-7.73,14.52-7.73,14.52c2.463,1.521,15.729,4.272,22.799-0.826c7.069-5.099,1.369-15.816,1.369-15.816  c0.327,9.561-5.393,13.054-5.393,13.054c-5.065,1.178-10.751,0.059-10.751,0.059C221.641,105.095,219.558,99.355,219.558,99.355z   M207.717,84.151c0,0,6.784-5.142,13.718-20.104c0,0,11.094-2.535,19.559,0c0,0,1.342,8.515-2.01,17.915  c0,0,6.909-4.45,10.603-21.386c0,0-16.287-8.25-39.495-0.368C210.092,60.207,213.405,70.411,207.717,84.151z M268.551,54.441  c-3.512,15.368-17.374,36.993-23.823,45.275c15.578-15.73,24.336-32.285,28.567-45.275  C273.294,54.441,270.946,54.336,268.551,54.441z M269.063,51.862c1.516-0.097,5.06-0.115,5.06-0.115  c0.481-1.664,0.886-3.261,1.218-4.777c-2.924,0.014-6.404,0.092-6.404,0.092C269.574,48.772,269.063,51.862,269.063,51.862z   M264.592,40.213c2.182,1.542,3.587,4.339,3.587,4.339c1.366,0.011,7.657-0.092,7.657-0.092c0.257-1.458,0.443-2.828,0.56-4.095  C272.497,40.127,264.592,40.213,264.592,40.213z M264.298,25.318c-2.541-2.098-6.613-4.623-11.802-3.593  c-5.188,1.03-5.314,6.469-5.314,6.469C253.831,23.063,264.298,25.318,264.298,25.318z M196.546,16.564  c-0.113-0.012-0.226-0.024-0.339-0.035c-4.662-0.455-10.836,0.035-16.359,2.54c0,0,5.848-0.269,11.292,0.91  c-0.748,1.045-1.191,2.274-0.964,3.617c2.631-0.085,9.721-0.156,18.251,0.976c2.529,0.335,4.953,0.784,6.988,1.383  C215.414,25.954,208.51,17.964,196.546,16.564z M284.316,14.227c-0.301-1.132-1.4-1.844-2.569-1.761  c-15.625,1.114-58.026-26.4-146.564-3.016c-12.278,3.243-21.622-1.249-23.561,3.655c-3.071,7.764,9.595,21.542,9.595,21.542  C52.93,63.454,0,132.698,0,132.698c8.864-1.765,17.315-3.085,25.381-4.031c26.232-48.998,79.862-81.25,109.483-97.121  c0,0-4.419,0.38-9.248,1.433c-4.441-2.594-14.4-15.959-12.977-18.43c1.423-2.472,8.296,2.266,22.862,1.191  c14.566-1.075,21.171-4.59,22.253-7.047c14.581-7.112,51.217-10.367,61.011,9.479c2.691-2.89-3.544-11.291-14.655-14.952  c-0.276-0.091-0.222-0.498,0.069-0.507c3.008-0.086,11.015,0.211,25.927,4.111c17.723,4.635,18.387,12.301,18.387,12.301  s13.039-4.473,21.94,4.861c1.272,1.333,2.795,3.571,3.847,5.521c-0.187-1.179-1.788-8.782-7.826-13.5c0,0,5.4-0.129,9.013-0.672  c0.475-0.071,0.919-0.15,1.316-0.236c3.415-0.743,5.795-0.987,6.285,0.41c0.49,1.396-3.388,9.952-8.788,13.998  c0,0-20.019-4.123-25.23,4.559c11.535,4.131,14.799,16.608,4.765,25.138c7.543-2.794,14.698-13.745,6.349-21.355  c6.333-0.117,11.744,0.067,16.371,0.432c0,0,0,0-0.001,0c0.134-3.622-0.364-6.172-1.312-7.285  C282.135,25.954,285.033,16.924,284.316,14.227z"></path>
<g>
</g>
<g>
</g>
<g>
</g>
<g>
</g>
<g>
</g>
</svg>
